<svg xmlns="http://www.w3.org/2000/svg" viewBox="0 0 480 320.03"><defs><style>.cls-1{fill:#fff;opacity:0.71;}.cls-2{fill:#1a96fc;}.cls-3{fill:#e89aff;}</style></defs><g id="Layer_2" data-name="Layer 2"><g id="Layer_1-2" data-name="Layer 1"><path class="cls-1" d="M8,320H168a8,8,0,0,0,8-8V248H160v56H128V264a8,8,0,0,0-8-8H56a8,8,0,0,0-8,8v40H16V48H160v72h16V40a8,8,0,0,0-8-8h-8V8a8,8,0,0,0-8-8H24a8,8,0,0,0-8,8V32H8a8,8,0,0,0-8,8V312a8,8,0,0,0,8,8Zm104-16H96V272h16ZM64,272H80v32H64ZM32,16H144V32H32Z"/><path class="cls-2" d="M72,192H40a8,8,0,0,0-8,8v32a8,8,0,0,0,8,8H72a8,8,0,0,0,8-8V200a8,8,0,0,0-8-8Zm-8,32H48V208H64Z"/><path class="cls-2" d="M96,232a8,8,0,0,0,8,8h32a8,8,0,0,0,8-8V208H128v16H112V208h16V192H104a8,8,0,0,0-8,8Z"/><path class="cls-3" d="M80,136a8,8,0,0,0-8-8H40a8,8,0,0,0-8,8v32a8,8,0,0,0,8,8H72a8,8,0,0,0,8-8ZM64,160H48V144H64Z"/><path class="cls-2" d="M96,168a8,8,0,0,0,8,8h24V160H112V144h16v16h16V136a8,8,0,0,0-8-8H104a8,8,0,0,0-8,8Z"/><path class="cls-3" d="M80,72a8,8,0,0,0-8-8H40a8,8,0,0,0-8,8v32a8,8,0,0,0,8,8H72a8,8,0,0,0,8-8ZM64,96H48V80H64Z"/><path class="cls-3" d="M104,112h32a8,8,0,0,0,8-8V72a8,8,0,0,0-8-8H104a8,8,0,0,0-8,8v32a8,8,0,0,0,8,8Zm8-32h16V96H112Z"/><path class="cls-1" d="M440,64h-.21A39.82,39.82,0,0,0,392,3.46a40.57,40.57,0,0,0-31.95,0A39.82,39.82,0,0,0,312.21,64H312a40.05,40.05,0,0,0-40,40h16a24,24,0,0,1,24-24h64a24,24,0,0,1,24,24v80H384V112H368V304H352V216H336v88H320V240H304v72a8,8,0,0,0,8,8H440a8,8,0,0,0,8-8V200h24a8,8,0,0,0,8-8V104a40.05,40.05,0,0,0-40-40Zm-8-24a24,24,0,0,1-24,24H408a39.78,39.78,0,0,0,0-48H408a24,24,0,0,1,24,24ZM388,19.29A24,24,0,0,1,375.82,64a39.17,39.17,0,0,0,0-47.92A24.06,24.06,0,0,1,388,19.29ZM320,40a24,24,0,1,1,24,24,24,24,0,0,1-24-24Zm87.79,40H408a24,24,0,0,1,24,24v80H416V104a39.58,39.58,0,0,0-8.21-24ZM384,200h16V304H384Zm48,104H416V200h16Zm32-120H448V104a39.58,39.58,0,0,0-8.21-24H440a24,24,0,0,1,24,24Z"/><rect class="cls-1" x="304" y="112.03" width="16" height="16"/><path class="cls-1" d="M138.34,189.69l56,56A8,8,0,0,0,208,240V216h64v24a8,8,0,0,0,13.66,5.66l56-56a8,8,0,0,0,0-11.31l-56-56A8,8,0,0,0,272,128v24H208V128a8,8,0,0,0-13.66-5.65l-56,56a8,8,0,0,0,0,11.31ZM192,147.35V160a8,8,0,0,0,8,8h80a8,8,0,0,0,8-8V147.35L324.69,184,288,220.72V208a8,8,0,0,0-8-8H200a8,8,0,0,0-8,8v12.69L155.31,184Z"/></g></g></svg>