<svg xmlns="http://www.w3.org/2000/svg" viewBox="0 0 360 360"><defs><style>.cls-1{fill:#fff;opacity:0.71;}.cls-2{fill:#e89aff;}.cls-3{fill:#1a96fc;}</style></defs><g id="Layer_2" data-name="Layer 2"><g id="Layer_1-2" data-name="Layer 1"><path class="cls-1" d="M354,318h-6V163.5A13.52,13.52,0,0,0,334.5,150H330v12h4.5a1.5,1.5,0,0,1,1.5,1.5V318H240a5.93,5.93,0,0,0-2.68.63L226.58,324H133.42l-10.74-5.37A5.93,5.93,0,0,0,120,318H24V163.5a1.5,1.5,0,0,1,1.5-1.5H30V150H25.5A13.52,13.52,0,0,0,12,163.5V318H6a6,6,0,0,0-6,6v15a21,21,0,0,0,21,21H339a21,21,0,0,0,21-21V324a6,6,0,0,0-6-6Zm-6,21a9,9,0,0,1-9,9H21a9,9,0,0,1-9-9v-9H118.58l10.74,5.37A5.93,5.93,0,0,0,132,336h96a5.93,5.93,0,0,0,2.68-.63L241.42,330H348Z"/><path class="cls-1" d="M42,138V300a6,6,0,0,0,6,6H312a6,6,0,0,0,6-6V228H306v66H54V144h60V132H48a6,6,0,0,0-6,6Z"/><path class="cls-1" d="M318,215.7V138a6,6,0,0,0-6-6H234v12h72v71.7Z"/><path class="cls-1" d="M132,162h31.5a28.48,28.48,0,0,0,23.23-12H204v33.51a9,9,0,0,1-4.37,7.71l-15,9a9,9,0,0,1-9.26,0l-15-9a9,9,0,0,1-4.37-7.71V174H144v9.51a21.14,21.14,0,0,0,10.19,18l6.24,3.73-3.66,18.3-35.15,13.18A21.11,21.11,0,0,0,108,256.39V270H78v12H282V270H252V256.39a21.11,21.11,0,0,0-13.63-19.66l-35.14-13.18-3.66-18.3,6.23-3.74a21.1,21.1,0,0,0,10.2-18V150a6,6,0,0,0,6-6V130.5A28.54,28.54,0,0,0,193.5,102h-39A28.54,28.54,0,0,0,126,130.5V156a6,6,0,0,0,6,6Zm48,51.52a20.93,20.93,0,0,0,8.61-1.86l2.72,13.57L180,232.79l-11.32-7.56,2.71-13.57a21.13,21.13,0,0,0,8.61,1.86Zm60,42.87V270H120V256.39a9,9,0,0,1,5.84-8.42l35.39-13.28L176.67,245a6,6,0,0,0,6.66,0l15.44-10.3L234.16,248a9,9,0,0,1,5.84,8.42ZM210,130.5V138H192V114h1.5A16.52,16.52,0,0,1,210,130.5Zm-72,0A16.52,16.52,0,0,1,154.5,114H180v19.5A16.52,16.52,0,0,1,163.5,150H138Z"/><path class="cls-1" d="M240,156a6,6,0,0,0-6,6v48a6,6,0,0,0,6,6h48a6,6,0,0,0,6-6V162a6,6,0,0,0-6-6Zm42,48H246V168h36Z"/><path class="cls-1" d="M120.85,201.09l10.29-6.18-18-30A6,6,0,0,0,108,162H66v12h38.6Z"/><rect class="cls-1" x="66" y="186" width="36" height="12"/><path class="cls-2" d="M132,90h96a6,6,0,0,0,6-6V6a6,6,0,0,0-6-6H132a6,6,0,0,0-6,6V84a6,6,0,0,0,6,6Zm42-48V36a6,6,0,0,1,12,0v6a6,6,0,0,1-12,0Zm-3,18h18a9,9,0,0,1,9,9v9H162V69a9,9,0,0,1,9-9ZM138,12h84V78H210V69a21,21,0,0,0-13.57-19.64A18.12,18.12,0,0,0,198,42V36a18,18,0,0,0-36,0v6a18,18,0,0,0,1.57,7.36A21,21,0,0,0,150,69v9H138Z"/><path class="cls-3" d="M354,24H258a6,6,0,0,0-6,6v78a6,6,0,0,0,6,6h96a6,6,0,0,0,6-6V30a6,6,0,0,0-6-6ZM300,66V60a6,6,0,0,1,12,0v6a6,6,0,0,1-12,0Zm-3,18h18a9,9,0,0,1,9,9v9H288V93a9,9,0,0,1,9-9Zm51,18H336V93a21,21,0,0,0-13.57-19.64A18.12,18.12,0,0,0,324,66V60a18,18,0,0,0-36,0v6a18.12,18.12,0,0,0,1.57,7.36A21,21,0,0,0,276,93v9H264V36h84Z"/><path class="cls-3" d="M6,114h96a6,6,0,0,0,6-6V30a6,6,0,0,0-6-6H6a6,6,0,0,0-6,6V48H12V36H96v66H84V93A21,21,0,0,0,70.43,73.36,18.12,18.12,0,0,0,72,66V60a18,18,0,0,0-36,0v6a18,18,0,0,0,1.57,7.36A21,21,0,0,0,24,93v9H12V59.39H0V108a6,6,0,0,0,6,6ZM48,60a6,6,0,0,1,12,0v6a6,6,0,0,1-12,0ZM36,93a9,9,0,0,1,9-9H63a9,9,0,0,1,9,9v9H36Z"/></g></g></svg>