<svg xmlns="http://www.w3.org/2000/svg" enable-background="new 0 0 511.999 511.999" viewBox="0 0 511.999 511.999">
    <path d="M413.051 245.188c0-86.598-70.453-157.052-157.052-157.052S98.948 158.59 98.948 245.188c0 53.106 27.114 102.742 71.322 131.607v49.478c0 47.27 38.457 85.726 85.727 85.726s85.727-38.457 85.727-85.726v-27.79l-.001-21.686c44.213-28.866 71.328-78.501 71.328-131.609zM311.45 426.274c0 30.576-24.875 55.45-55.451 55.45s-55.451-24.875-55.451-55.45V413.62H311.45v12.654zm7.597-71.073c-4.7 2.7-7.597 7.706-7.597 13.127v15.017h-40.314v-78.279c19.656-6.395 33.908-24.882 33.908-46.644 0-8.36-6.778-15.138-15.138-15.138s-15.138 6.778-15.138 15.138c0 10.349-8.42 18.77-18.769 18.77-10.349 0-18.77-8.42-18.77-18.77 0-8.36-6.778-15.138-15.138-15.138s-15.138 6.778-15.138 15.138c0 21.761 14.251 40.249 33.908 46.644v78.279H200.55v-15.018c0-5.42-2.897-10.426-7.597-13.126-39.309-22.583-63.727-64.737-63.727-110.013 0-69.904 56.871-126.776 126.776-126.776s126.776 56.871 126.776 126.776c-.002 45.277-24.422 87.432-63.731 110.013zM255.999 0c-8.36 0-15.138 6.778-15.138 15.138v26.575c0 8.36 6.778 15.138 15.138 15.138s15.138-6.778 15.138-15.138V15.138C271.137 6.778 264.36 0 255.999 0zM213.417 45.596l-9.396-24.86c-2.956-7.82-11.695-11.763-19.512-8.808-7.82 2.956-11.764 11.692-8.808 19.512l9.395 24.86c2.29 6.058 8.048 9.79 14.163 9.79 1.778 0 3.588-.316 5.35-.982 7.82-2.956 11.764-11.692 8.808-19.512zM327.489 11.928c-7.821-2.957-16.556.989-19.512 8.809l-9.396 24.86c-2.955 7.819.989 16.555 8.809 19.511 1.762.666 3.571.982 5.349.982 6.116 0 11.874-3.732 14.163-9.79l9.396-24.86c2.956-7.821-.988-16.556-8.809-19.512z"/>
</svg>
