<svg xmlns="http://www.w3.org/2000/svg" width="22" height="23" fill="none" viewBox="0 0 22 23">
    <path stroke="#fff" stroke-linecap="round" stroke-linejoin="round" stroke-width="2" d="M21 16.42v3c.001.279-.056.554-.168.81-.111.255-.275.484-.48.672-.205.188-.447.332-.711.42-.264.09-.544.123-.821.098-3.077-.334-6.033-1.386-8.63-3.07-2.416-1.535-4.465-3.584-6-6C2.5 9.741 1.448 6.771 1.12 3.68c-.025-.276.008-.555.096-.818.09-.263.232-.505.419-.71.187-.205.415-.37.669-.481.254-.113.528-.17.806-.17h3c.485-.006.956.166 1.324.483.368.316.608.756.676 1.236.127.96.361 1.903.7 2.81.135.358.164.747.084 1.121s-.265.717-.534.99L7.09 9.41c1.424 2.503 3.496 4.575 6 6l1.27-1.27c.272-.27.615-.455.99-.535.373-.08.762-.05 1.12.084.907.339 1.85.574 2.81.7.486.069.93.313 1.246.688.318.374.486.852.474 1.342z"/>
</svg>
